<?xml version="1.0" encoding="UTF-8"?>
<svg width="16px" height="12px" viewBox="0 0 16 12" version="1.1" xmlns="http://www.w3.org/2000/svg" xmlns:xlink="http://www.w3.org/1999/xlink">
  <g id="next" fill="#fff">
    <path d="M10.0200002,11.8200003 L15.4200004,6.42000016 C15.5400004,6.30000015 15.6000004,6.12000015 15.6000004,6.00000015 C15.6000004,5.82000014 15.5400004,5.70000014 15.4200004,5.58000014 L10.0200002,0.180000004 C9.90000024,0.0600000015 9.78000024,0 9.60000023,0 C9.42000023,0 9.30000023,0.0600000015 9.18000022,0.180000004 L8.3400002,1.02000002 C8.1000002,1.26000003 8.1000002,1.62000004 8.3400002,1.86000005 L10.7400003,4.2600001 C10.9200003,4.44000011 10.8000003,4.80000012 10.5000003,4.80000012 L0.600000015,4.80000012 C0.240000006,4.80000012 0,5.04000012 0,5.40000013 L0,6.60000016 C0,6.96000017 0.240000006,7.20000018 0.600000015,7.20000018 L10.5600003,7.20000018 C10.8000003,7.20000018 10.9800003,7.50000018 10.8000003,7.74000019 L8.40000021,10.1400002 C8.1600002,10.3800003 8.1600002,10.7400003 8.40000021,10.9800003 L9.24000023,11.8200003 C9.36000023,11.9400003 9.48000023,12.0000003 9.66000024,12.0000003 C9.78000024,12.0000003 9.90000024,11.9400003 10.0200002,11.8200003 L10.0200002,11.8200003 Z" id="Shape"></path>
  </g>
</svg>