<?xml version="1.0" standalone="no"?>
<!DOCTYPE svg PUBLIC "-//W3C//DTD SVG 20010904//EN"
 "http://www.w3.org/TR/2001/REC-SVG-20010904/DTD/svg10.dtd">
<svg version="1.0" xmlns="http://www.w3.org/2000/svg"
 width="512.000000pt" height="512.000000pt" viewBox="0 0 512.000000 512.000000"
 preserveAspectRatio="xMidYMid meet">
<metadata>
Created by potrace 1.11, written by Peter Selinger 2001-2013
</metadata>
<g transform="translate(0.000000,512.000000) scale(0.100000,-0.100000)"
fill="#000000" stroke="none">
<path d="M0 2560 l0 -2560 2560 0 2560 0 0 2560 0 2560 -2560 0 -2560 0 0
-2560z m2937 1716 c432 -65 683 -213 635 -375 -26 -85 -172 -179 -367 -236
-565 -164 -1445 -62 -1626 188 -33 45 -39 109 -15 155 72 136 380 250 776 286
99 9 499 -3 597 -18z m-132 -1145 c315 -87 555 -307 666 -612 55 -150 70 -237
76 -439 10 -343 -45 -571 -193 -799 -164 -250 -418 -408 -736 -457 -98 -15
-130 -16 -249 -6 -285 25 -524 134 -654 300 -103 131 -148 268 -148 452 1 215
68 366 221 493 166 138 413 211 717 211 171 1 250 -8 397 -45 42 -10 79 -19
82 -19 7 0 -3 65 -25 153 -27 107 -73 198 -132 258 -86 88 -174 119 -337 119
-117 0 -166 -10 -353 -69 -157 -50 -241 -60 -320 -37 -65 19 -112 56 -145 114
l-22 40 65 61 c162 151 375 257 596 295 128 23 390 15 494 -13z"/>
<path d="M2240 4025 c-106 -15 -289 -58 -319 -75 -13 -7 -11 -11 14 -20 55
-22 175 -49 288 -67 157 -24 528 -24 683 0 117 19 293 62 307 76 10 10 -115
47 -245 72 -140 27 -572 35 -728 14z"/>
<path d="M2393 1895 c-145 -26 -261 -104 -306 -204 -15 -34 -21 -67 -21 -131
-1 -74 3 -93 27 -142 67 -137 231 -203 436 -177 134 16 221 58 300 144 81 88
148 263 153 403 l3 65 -58 13 c-177 41 -401 53 -534 29z"/>
</g>
</svg>
